<?xml version='1.0' encoding='utf-8'?>
<svg xmlns="http://www.w3.org/2000/svg" width="890" height="284" viewBox="0 0 890 284" version="1.1" id="svg6">
    <defs id="defs10"/>
    <rect x="0" y="0" width="100%" height="100%" fill="#000000"/>
    <path d="m 240,141 c -9.84894,1.98017 -22.35903,1.89303 -25.49097,-9.98194 -2.15488,-12.43735 -18.47363,-12.60581 -18.50903,0.8386 -4.0518,14.0138 -5.14243,28.13957 -8.37909,42.59107 C 184.50692,172.18445 184.57152,156.12266 183,148.28668 181.80332,134.13452 179.54498,120.42211 179,106 175.76231,99.6406 179.66824,80.320534 168.45517,83.029889 162.46368,91.269285 164.40363,102.35262 162,111.71332 c -1.91099,15.46576 -4.50542,30.64844 -6,46.28668 -3.51445,14.20181 -3.72237,-9.45902 -6,-14 -1.58604,-13.34661 -2.19437,-26.62198 -7,-40 -12.52863,-3.65558 -9.431,15.38706 -12,23 -2.50971,4.45717 -4.02466,31.22408 -7,20.28668 -4.80947,-8.8528 -2.01504,-22.26859 -11,-28.28668 -8.89812,4.66136 -8.71488,17.13527 -14,25 -4.907743,-12.6227 -14.264767,-9.82916 -23.713319,-5 -20.89854,1.14232 -41.870169,2.10818 -63.286681,2 -8.4171444,3.90266 17.130238,1.19788 23,2 10.330189,1.87847 20.665629,0.79497 30.426638,2 9.593961,4.30252 23.47636,-8.40476 26.952454,3.44773 7.077562,14.29272 15.642298,-3.08994 17.384828,-11.13703 4.17916,-12.39712 6.3869,10.99345 7.23608,15.6893 -0.10123,8.92404 9.74327,21.70205 14,8 1.77709,-13.8058 5.21566,-25.74603 7,-39 4.97921,4.42705 3.98227,18.40176 6,26.71332 3.49518,11.16708 1.15348,26.06017 7.48533,36.40068 11.19568,3.80864 7.70885,-15.09386 10.51467,-21.97066 1.3159,-16.11109 4.91442,-32.11205 6,-48.14334 2.55437,-17.62328 4.48844,6.04087 6,12 0.34606,17.96931 4.25184,33.71905 5,51 2.95599,6.1808 -0.97768,27.28204 11.31286,21.68714 5.26837,-12.04106 4.30718,-24.9558 7.11434,-37.24071 C 199.09244,151.48956 199.66002,141.09431 205,131 c 5.87781,14.22193 23.87353,24.6521 35,10 z m 92,-8 c -0.69406,11.14034 -0.52908,29.93799 14.71332,30 12.30445,0.71112 21.88712,-8.83971 30.28668,-17 0.42842,9.96424 10.17159,18.33737 19.8206,12.63588 C 407.12989,159.64056 415.1899,136.51696 421,145 c -2.62468,12.69516 13.68975,16.57256 22,9 15.61679,-16.62976 1.70244,3.56731 13.60245,6.90061 C 466.42326,154.43573 470.97841,141.95501 480,134 c 7.22774,-9.23744 17.12222,-19.35581 28,-24 5.87222,6.03266 -3.77854,18.07265 -5.66065,26.32129 C 500.73889,143.6816 498.28587,158.56065 510,158 c 9.02326,1.74957 17.96943,-5.69612 25,-12 2.35008,14.85784 20.83204,12.91852 29.24602,5.19665 9.75972,-3.2749 18.08778,-18.26839 25.5843,-18.536 -2.39388,7.47559 -1.30173,19.77278 -12.15161,21 C 543.96837,166.28102 511.26111,182.13293 484,206 c -10.69317,9.35912 -23.40858,21.44938 -25,36.71332 -2.6914,9.53459 4.96779,24.06876 17.2833,20.28668 15.29591,-0.91562 31.96486,3.69684 44.84385,-6.94967 35.61662,-22.01408 60.12414,-58.33405 73.14895,-97.69767 3.5195,-8.84847 15.20317,-6.95974 22.58056,-10.35266 14.74816,-2.68158 30.24037,-0.0202 44.71332,2 15.51615,-0.0542 23.85626,-15.58645 29.43002,-28 4.47045,11.37422 5.64078,22.72518 7,34.56998 4.15962,7.61056 -1.51024,26.08484 11,26.43002 7.04363,-7.27203 5.06235,-19.75271 7,-29 2.18922,-12.94298 4.43878,-25.41425 6,-39 3.86908,-14.60646 3.79174,12.30549 5,17.56998 2.63485,13.7005 2.72684,28.23695 5.21805,42.13693 -0.58887,6.94491 1.27646,28.27118 11.00994,18.32243 3.77755,-16.80485 5.85691,-32.38139 8.44439,-49.42548 C 753.01742,139.26517 754.91509,116.21509 757,128 c 3.39577,11.93446 5.27577,24.82644 8,37 10.14645,9.84715 11.16829,-11.50355 14,-17 0.30604,-15.58562 8.69821,-15.56848 10,0 4.77385,14.68848 16.05913,2.12747 18.78456,-6.64992 11.47035,6.58555 27.08966,2.10289 40.62706,2.90744 C 860.71429,143.78774 872.38346,142.35789 885,143 c -8.96639,-4.24675 -23.86556,-0.54752 -34.56998,-3 -11.55236,-0.14079 -23.31686,0.64537 -33.85635,-2.1886 -8.59669,-13.6648 -16.63652,6.83774 -21.40399,5.52795 -4.67557,-6.12231 -4.45553,-25.50318 -15.48254,-20.02649 C 774.86775,132.19873 774.30204,142.5542 770,152 c -5.00683,-14.52018 -4.70927,-29.06483 -10,-44 -10.27877,-8.698594 -11.01196,10.53838 -12,16.71332 -2.37202,14.39768 -5.19238,28.96275 -7,43.28668 -5.88928,-1.85996 -3.23449,-17.84319 -5,-25.42664 -2.52786,-16.0867 -3.17922,-32.45175 -5.73137,-49.279899 C 727.48642,79.371528 714.4103,91.965235 718,101 c -3.50596,12.81877 -3.61154,28.26598 -7,40.85666 -0.4527,7.52958 -3.95583,27.93978 -6,10.28668 -2.56603,-13.49846 -2.76435,-27.34509 -8,-41.14334 -12.33722,-8.00415 -14.32061,13.05802 -19.57888,20.11565 -5.63052,11.5602 -19.22877,14.09375 -30.13444,10.88435 -15.80133,-4.06096 -32.09372,-0.0727 -47.28668,4 -0.89904,-8.79151 2.59911,-18.43472 4.66065,-27.32129 -5.2028,-12.45011 -16.29253,2.66342 -21.71085,8.02148 C 573.33901,135.56546 563.94727,147.8587 550,148 543.63466,135.86496 558.45176,124.89732 565.66833,116.42679 574.21051,109.27311 589.61649,101.66647 598,112 c 12.96773,-4.07969 -5.50006,-16.10279 -13.2833,-12 -19.90454,2.04554 -39.2665,16.82446 -48.02956,35.31286 C 531.07444,140.53932 518.87955,156.08757 513,145 c 1.50201,-12.68681 9.89336,-24.73119 9,-38 -7.76512,-13.890484 -23.60584,-0.26239 -32,6 -5.04015,3.47172 -22.09396,25.66805 -18.08951,14.81586 0.89138,-6.55179 13.18246,-20.61518 2.23285,-22.81586 -13.3333,0.93469 -7.25058,21.29533 -17.96081,27.05606 C 449.81252,137.37015 440.4434,154.64723 432,145 c -1.29508,-11.92132 6.61015,-21.15626 8,-32 -10.56764,-6.40915 -13.78027,12.37067 -21.11309,16.98639 C 412.02888,137.452 404.64606,149.95124 393,150 c -6.23671,-9.08952 3.19593,-20.08727 8.62571,-27.62571 7.75101,-7.82256 18.98941,-20.86522 30.68715,-16.06143 C 442.41739,115.01935 437.38205,93.379736 428,97 404.23826,99.535487 387.99494,119.0869 376.68714,138.31286 368.71607,145.50184 357.71975,160.02251 346,153 c -4.64238,-11.31533 -1.30561,-23.89255 1,-35 20.52106,-16.84203 36.40361,-38.753076 49,-62 3.25032,-9.596651 9.1573,-20.014922 4.8114,-30.426325 -8.2552,-12.459231 -21.81048,2.837196 -28.31425,9.929177 C 357.2846,54.952422 346.74567,77.701504 340,100.85666 335.96142,111.35652 334.39676,122.65199 332,133 Z m 250,27 c -7.16515,20.60661 -18.69611,39.80637 -31.91049,57.18414 C 534.48202,236.26421 513.20138,255.9371 488.28668,259 479.38359,262.02892 466.73304,254.01979 470,242.57336 c 4.47261,-22.56364 27.27344,-36.76491 44.98671,-49.9098 C 534.73096,179.45658 555.56677,169.83975 577,160 c 2.66794,1.64413 2.47077,-3.259 5,0 z M 452,146 c 2.55494,-3.58745 2.55494,3.58745 0,0 z m -33,-6 c 3.13378,-4.02085 1.88436,6.37647 0,0 z M 394,28 c 3.65574,12.958757 -6.86954,26.012548 -12.01186,37.556704 C 373.30314,79.763096 363.35716,93.270784 352,105 c -0.32743,-9.615839 6.67192,-19.508909 9.76048,-29.26947 8.28548,-16.605911 16.02135,-35.379885 31.0009,-47.317657 z M 319,22 C 297.21721,42.602094 284.90904,71.58295 274.97011,99.544834 268.39817,119.29803 261.18228,139.27606 256,158.85666 c -6.37626,14.15951 13.29043,11.27357 12.7703,-1.33984 6.24418,-11.8049 14.14296,-14.76437 21.73255,-2.01397 16.8656,16.77792 38.18698,28.41282 60.35381,33.49715 16.12931,3.98914 34.96209,3.47897 52.14334,2 9.7241,-3.05928 22.72846,-4.18358 31,-12 -6.46223,-1.73264 -17.80086,7.0005 -26.71332,6 -17.43043,2.35057 -36.19437,1.25934 -52.80068,-2.78771 -20.59865,-5.02945 -40.51903,-17.05888 -54.97133,-32.32629 -14.67361,-8.64849 -7.36284,-14.13026 4.79819,-19.19886 10.39094,-6.01301 25.65544,-15.99811 22.57314,-29.17247 -9.03268,-8.606219 -24.06317,2.34635 -31.78622,9.69553 C 288.42146,118.12246 281.71695,125.7615 276,134 c -0.82328,-10.17455 5.8488,-21.07028 14.50285,-27.50285 18.6794,-18.354709 34.85339,-39.633419 43.75972,-64.335149 C 336.29803,34.055852 339.53913,21.151865 329,18 c -3.44662,1.12031 -7.20876,1.471555 -10,4 z m -45,112 c 3.13378,-4.02085 1.88436,6.37647 0,0 z m 43,-27 c -4.42405,11.05802 -16.27848,19.09398 -27,24 1.45584,-8.75555 12.50041,-16.58667 19.59207,-22.95524 C 311.58955,106.58184 314.98436,104.44689 317,107 Z m 12,-81 c 2.18,18.275053 -11.27419,35.27579 -21.64904,50.34111 -5.52958,7.581375 -14.51983,22.016383 -21.18128,22.998243 C 296.59491,74.562495 306.8383,47.114331 326,27 l 1.76138,-0.587127 z"
          fill="#ffffff" fill-rule="nonzero" id="path4" stroke="#ffffff" stroke-width="2" stroke-linejoin="round"
          stroke-linecap="round" stroke-miterlimit="1" paint-order="stroke fill"/>
</svg>
